<?xml version="1.0" standalone="no"?>
<!DOCTYPE svg PUBLIC "-//W3C//DTD SVG 20010904//EN"
 "http://www.w3.org/TR/2001/REC-SVG-20010904/DTD/svg10.dtd">
<svg version="1.0" xmlns="http://www.w3.org/2000/svg"
 width="1674.000000pt" height="812.000000pt" viewBox="0 0 1674.000000 812.000000"
 preserveAspectRatio="xMidYMid meet">

<g transform="translate(0.000000,812.000000) scale(0.100000,-0.100000)"
fill="#000000" stroke="none">
<path d="M2888 6685 l-65 -325 63 0 62 0 13 70 12 70 63 0 c68 0 66 2 79 -70
13 -72 12 -70 76 -70 41 0 59 4 59 13 -1 6 -29 152 -63 322 l-63 310 -85 3
-86 3 -65 -326z m168 43 c21 -101 20 -108 -22 -108 -32 0 -36 2 -31 23 3 12
11 52 18 89 7 38 14 66 17 63 2 -2 10 -32 18 -67z"/>
<path d="M3470 6685 l0 -325 150 0 150 0 0 60 0 60 -90 0 -90 0 0 265 0 265
-60 0 -60 0 0 -325z"/>
<path d="M3990 6685 l0 -325 60 0 60 0 0 178 1 177 40 -85 c23 -47 45 -96 51
-110 9 -23 14 -17 63 85 l53 110 1 -177 1 -178 60 0 60 0 0 325 0 325 -61 0
-60 0 -53 -111 -52 -111 -52 111 -52 111 -60 0 -60 0 0 -325z"/>
<path d="M4785 6998 c-5 -16 -125 -620 -125 -630 0 -5 27 -8 60 -8 67 0 63 -4
80 83 l11 57 63 0 63 0 12 -70 13 -70 64 0 c62 0 64 1 59 23 -6 24 -125 619
-125 624 0 2 -38 3 -85 3 -60 0 -87 -4 -90 -12z m125 -370 c0 -5 -16 -8 -36
-8 l-37 0 7 40 c3 22 12 64 18 93 l11 52 18 -85 c10 -47 18 -88 19 -92z"/>
<path d="M5250 6950 l0 -60 60 0 60 0 0 -265 0 -265 60 0 60 0 2 263 3 262 58
3 57 3 0 59 0 60 -180 0 -180 0 0 -60z"/>
<path d="M5835 6993 c4 -10 38 -107 76 -215 l69 -197 0 -110 0 -111 60 0 60 0
0 119 0 118 61 169 c34 93 67 186 75 207 l13 38 -66 -3 -66 -3 -36 -107 c-20
-59 -38 -109 -41 -112 -3 -3 -23 46 -44 109 l-37 115 -66 0 c-58 0 -64 -2 -58
-17z"/>
<path d="M1600 6811 c-171 -55 -302 -186 -346 -347 -18 -67 -19 -142 -19
-2434 l0 -2365 23 -68 c55 -157 171 -273 329 -326 l62 -21 2480 0 2481 0 6 27
c15 57 178 53 -2482 53 -2428 0 -2453 0 -2517 20 -127 39 -239 151 -285 284
-16 48 -17 198 -20 2351 -2 1537 1 2326 8 2378 24 187 156 336 331 376 25 6
187 11 370 11 352 0 355 0 347 52 l-3 23 -355 2 c-317 2 -361 0 -410 -16z"/>
<path d="M6712 6818 c-7 -7 -12 -19 -12 -28 0 -9 5 -21 12 -28 9 -9 950 -12
4173 -12 2767 0 4175 -4 4204 -11 175 -40 307 -189 331 -376 7 -52 10 -841 8
-2378 -3 -2153 -4 -2303 -20 -2351 -46 -133 -158 -245 -285 -284 -57 -18 -93
-20 -303 -20 -256 0 -265 -2 -258 -52 l3 -23 255 -3 c162 -2 271 1 299 8 166
41 305 171 363 337 l23 68 0 2365 c0 2292 -1 2367 -19 2434 -45 164 -182 298
-355 350 -50 15 -421 16 -4231 16 -3235 0 -4179 -3 -4188 -12z"/>
<path d="M1681 6609 c-85 -17 -156 -73 -204 -163 l-22 -41 0 -2365 0 -2365 27
-51 c31 -59 84 -108 147 -138 l46 -21 2461 -3 c2688 -2 2495 -6 2480 53 l-6
25 -2458 2 -2457 3 -42 22 c-57 31 -100 87 -113 147 -8 36 -10 728 -8 2356 l3
2305 25 45 c14 24 45 58 68 75 l44 30 336 5 c186 3 343 9 350 13 19 13 14 55
-7 67 -24 12 -605 12 -670 -1z"/>
<path d="M6716 6604 c-18 -18 -20 -32 -6 -54 8 -13 488 -16 4184 -20 l4174 -5
44 -30 c23 -17 54 -51 68 -75 l25 -45 3 -2305 c2 -1628 0 -2320 -8 -2356 -13
-60 -56 -116 -113 -147 -39 -20 -59 -22 -282 -27 l-240 -5 -3 -26 c-6 -48 8
-51 265 -47 217 3 242 5 284 24 63 30 116 79 147 138 l27 51 0 2365 0 2365
-23 42 c-35 66 -79 110 -140 140 l-57 28 -4167 3 c-3784 2 -4168 1 -4182 -14z"/>
<path d="M3460 5329 c-350 -40 -631 -246 -795 -583 -95 -194 -133 -366 -142
-632 -19 -559 147 -959 492 -1189 157 -105 306 -148 510 -149 136 0 231 17
356 63 l55 21 17 332 c10 183 17 344 17 356 0 23 -1 23 -47 -13 -27 -20 -82
-53 -123 -73 -71 -35 -80 -37 -175 -37 -87 0 -107 3 -155 26 -154 72 -249 263
-266 535 -16 268 55 517 182 634 73 66 145 93 249 94 69 1 89 -3 145 -30 36
-17 85 -47 108 -67 24 -21 46 -37 48 -37 2 0 4 157 4 350 l0 349 -65 20 c-121
38 -260 48 -415 30z"/>
<path d="M4170 4055 l0 -1235 620 0 620 0 0 295 0 295 -285 0 -285 0 0 190 0
190 260 0 260 0 0 280 0 280 -260 0 -260 0 0 180 0 180 285 0 285 0 0 290 0
290 -620 0 -620 0 0 -1235z"/>
<path d="M5650 4055 l0 -1235 320 0 320 0 0 423 c0 232 -5 492 -10 577 -5 85
-12 205 -15 265 l-6 110 59 -175 c32 -96 143 -406 247 -687 l189 -513 323 0
323 0 0 1235 0 1235 -321 0 -321 0 5 -437 c4 -428 14 -586 56 -933 6 -41 8
-76 7 -77 -2 -2 -38 104 -80 234 -43 131 -162 457 -264 725 l-187 488 -322 0
-323 0 0 -1235z"/>
<path d="M7500 4995 l0 -295 185 0 185 0 0 -940 0 -940 335 0 335 0 0 940 0
940 190 0 190 0 0 295 0 295 -710 0 -710 0 0 -295z"/>
<path d="M9020 4055 l0 -1235 335 0 335 0 1 498 0 497 45 -125 c24 -69 106
-291 182 -495 l139 -370 361 -3 c199 -1 362 0 362 3 0 3 -110 233 -245 512
-135 279 -244 507 -242 508 1 1 31 17 67 36 96 51 188 147 239 250 52 106 71
194 71 339 0 270 -90 482 -267 630 -73 61 -134 94 -238 129 -160 53 -255 61
-724 61 l-421 0 0 -1235z m812 664 c63 -14 131 -74 155 -137 24 -62 24 -179 0
-249 -10 -28 -36 -72 -58 -96 -52 -60 -110 -87 -182 -87 l-57 0 0 288 c0 159
3 292 7 296 8 7 57 2 135 -15z"/>
<path d="M11430 5286 c0 -4 -567 -2367 -585 -2438 l-7 -28 346 0 c190 0 346 1
347 3 0 1 12 70 27 152 l27 150 225 0 225 0 24 -152 25 -153 347 0 347 0 -11
48 c-5 26 -123 580 -261 1232 l-251 1185 -413 3 c-226 1 -412 0 -412 -2z m440
-986 c12 -102 34 -278 50 -392 17 -114 30 -217 30 -228 0 -19 -6 -20 -135 -20
-114 0 -135 2 -135 15 0 9 13 91 30 183 42 238 76 466 95 622 22 189 27 202
37 95 5 -49 17 -173 28 -275z"/>
<path d="M12890 4055 l0 -1235 585 0 585 0 0 295 0 295 -250 0 -250 0 0 940 0
940 -335 0 -335 0 0 -1235z"/>
<path d="M7157 1717 l-37 -32 0 -127 0 -126 38 -31 c35 -27 46 -30 123 -33
l84 -3 0 -70 0 -70 -60 0 c-55 0 -60 2 -63 23 -3 20 -9 22 -63 22 l-59 0 0
-50 c0 -45 4 -53 38 -85 l37 -34 110 0 110 0 38 34 37 35 0 124 0 124 -40 36
c-39 35 -41 36 -125 36 l-85 0 0 70 0 70 65 0 c63 0 65 -1 65 -25 0 -24 3 -25
60 -25 l60 0 0 54 c0 51 -2 56 -39 85 -38 30 -41 31 -147 31 -108 -1 -109 -1
-147 -33z"/>
<path d="M7700 1690 l0 -60 60 0 60 0 0 -265 0 -265 65 0 65 0 0 265 0 265 60
0 60 0 0 60 0 60 -185 0 -185 0 0 -60z"/>
<path d="M8355 1728 c-6 -25 -125 -620 -125 -625 0 -2 27 -3 60 -3 40 0 62 4
64 13 3 6 10 39 18 72 l13 60 60 0 60 0 13 -60 c8 -33 15 -66 18 -72 2 -9 24
-13 64 -13 33 0 60 1 60 3 0 5 -119 600 -125 625 -5 21 -11 22 -90 22 -79 0
-85 -1 -90 -22z m110 -267 c20 -95 21 -91 -21 -91 l-36 0 7 38 c15 81 27 133
31 130 2 -2 10 -37 19 -77z"/>
<path d="M8880 1425 l0 -325 60 0 60 0 2 162 3 161 61 -159 61 -159 66 -3 67
-3 0 326 0 325 -60 0 -60 0 -2 -162 -3 -161 -61 159 -61 159 -67 3 -66 3 0
-326z"/>
<path d="M9480 1425 l0 -325 150 0 149 0 36 31 35 31 0 262 0 262 -33 32 -33
32 -152 0 -152 0 0 -325z m250 0 l0 -205 -65 0 -65 0 0 205 0 205 65 0 65 0 0
-205z"/>
<path d="M10450 1457 l0 -293 33 -32 33 -32 113 0 c111 0 114 1 152 31 l39 31
0 294 0 294 -60 0 -60 0 0 -265 0 -265 -65 0 -65 0 0 265 0 265 -60 0 -60 0 0
-293z"/>
<path d="M11040 1425 l0 -325 60 0 60 0 0 110 0 110 81 0 c76 0 84 2 120 31
l39 31 0 152 0 152 -33 32 -33 32 -147 0 -147 0 0 -325z m240 110 l0 -95 -60
0 -60 0 0 95 0 95 60 0 60 0 0 -95z"/>
<path d="M12033 1720 l-33 -30 0 -263 0 -263 33 -32 33 -32 114 0 115 1 38 34
c33 32 37 40 37 85 l0 50 -59 0 c-54 0 -60 -2 -63 -22 -3 -21 -9 -23 -65 -26
l-63 -3 0 206 0 205 65 0 c63 0 65 -1 65 -25 0 -24 3 -25 60 -25 l60 0 0 53
c0 50 -2 56 -39 85 -40 32 -41 32 -153 32 -111 -1 -114 -1 -145 -30z"/>
<path d="M12580 1425 l0 -325 150 0 150 0 0 60 0 60 -85 0 -85 0 0 265 0 265
-65 0 -65 0 0 -325z"/>
<path d="M13100 1457 l0 -294 39 -31 c40 -32 41 -32 153 -32 l113 1 38 34 37
35 0 290 0 290 -60 0 -60 0 -2 -262 -3 -263 -67 -3 -68 -3 0 266 0 265 -60 0
-60 0 0 -293z"/>
<path d="M13700 1425 l0 -325 143 0 142 0 38 31 37 30 0 105 c0 92 -3 108 -22
134 l-22 30 22 23 c20 21 22 34 22 128 l0 105 -33 32 -33 32 -147 0 -147 0 0
-325z m240 135 l0 -70 -60 0 -60 0 0 70 0 70 60 0 60 0 0 -70z m0 -265 l0 -75
-60 0 -60 0 0 75 0 75 60 0 60 0 0 -75z"/>
</g>
</svg>
